<svg xmlns="http://www.w3.org/2000/svg" width="1315" height="490.219"><defs><style>.cls-1{fill:#fff;fill-rule:evenodd}</style></defs><path class="cls-1" d="M33.5 489.1l26.367-70.459h-7.033L30.324 480.8h-.293L7.57 418.644H.49L26.857 489.1H33.5zm67.223 0v-70.456H94.08V489.1h6.641zm36.265-19.141c.733 12.11 11.084 20.264 25.83 20.264 15.577 0 25.538-8.105 25.538-20.459 0-9.814-5.958-15.234-20.118-18.8l-7.617-1.953c-10.351-2.637-14.746-6.2-14.746-12.256 0-7.763 7.227-13.183 16.992-13.183 10.01 0 17.041 5.273 17.676 13.232h6.689c-.39-11.181-10.449-19.287-24.169-19.287-13.868 0-24.122 8.106-24.122 19.482 0 9.278 5.811 14.8 18.848 18.116l8.74 2.246c10.45 2.637 14.991 6.543 14.991 13.135 0 7.91-7.569 13.671-18.116 13.671-11.035 0-18.994-5.761-19.726-14.209h-6.69zm94.274-51.318h-6.641v45.85c0 15.185 10.3 25.732 27.246 25.732s27.3-10.547 27.3-25.732v-45.85h-6.689V464.1c0 11.816-7.666 19.922-20.606 19.922-12.89 0-20.605-8.106-20.605-19.922v-45.456zM364.84 489.1h7.031l-26.318-70.459h-6.641L312.545 489.1h7.08l7.813-21.582h29.589zm-22.754-62.2h.293l12.646 34.863h-25.586zm105.992 56.152h-35.3v-64.4h-6.64V489.1h41.943v-6.055zm121.36-52.978h.39l17.334 59.026h6.152l19.434-70.459h-6.982l-15.479 60.2h-.342l-16.992-60.2h-6.641l-17.041 60.2h-.292l-15.528-60.2h-6.933L545.9 489.1h6.2zm121.08 52.978h-35.889V456h34.082v-5.957h-34.082V424.7h35.889v-6.055h-42.53V489.1h42.53v-6.055zm63.365 6.055c14.892 0 23.828-7.324 23.828-19.336 0-9.765-6.787-16.357-16.553-17.529v-.342a15.929 15.929 0 0 0 12.891-15.869c0-10.4-8.2-17.383-20.313-17.383H728.4V489.1h25.488zm-18.848-64.551h17.285c9.375 0 14.991 4.541 14.991 12.207 0 8.3-6.25 13.184-16.944 13.184h-15.332v-25.395zm0 58.643v-27.49h17.041c12.158 0 18.8 4.931 18.8 13.72 0 8.741-6.4 13.77-17.92 13.77h-17.92zm125.656-64.551V489.1h22.852c21.143 0 33.4-12.939 33.4-35.254 0-22.265-12.3-35.2-33.4-35.2h-22.852zm6.69 6.055h15.771c17.334 0 27 10.449 27 29.2 0 18.7-9.668 29.15-27 29.15h-15.771V424.7zm128.889 58.349h-35.885V456h34.082v-5.957h-34.082V424.7h35.885v-6.055h-42.526V489.1h42.526v-6.055zm33.39-13.086c.73 12.11 11.08 20.264 25.83 20.264 15.57 0 25.54-8.105 25.54-20.459 0-9.814-5.96-15.234-20.12-18.8l-7.62-1.953c-10.35-2.637-14.75-6.2-14.75-12.256 0-7.763 7.23-13.183 17-13.183 10.01 0 17.04 5.273 17.67 13.232h6.69c-.39-11.181-10.45-19.287-24.17-19.287-13.86 0-24.12 8.106-24.12 19.482 0 9.278 5.81 14.8 18.85 18.116l8.74 2.246c10.45 2.637 14.99 6.543 14.99 13.135 0 7.91-7.57 13.671-18.12 13.671-11.03 0-18.99-5.761-19.72-14.209h-6.69zm94.27 19.141v-70.463h-6.64V489.1h6.64zm97.74-28.613V453.7h-28.51v5.859h21.87v2.49c0 13.282-8.98 21.973-22.61 21.973-15.08 0-24.8-11.963-24.8-30.566 0-18.36 9.52-29.737 24.8-29.737 10.75 0 19 6.055 21.88 16.113h6.93c-2.63-13.476-14.01-22.314-28.81-22.314-19.23 0-31.64 14.111-31.64 35.938 0 22.216 12.55 36.767 31.64 36.767 18.31.003 29.25-11.13 29.25-29.733zm43.84 28.613v-58.891h.34l41.45 58.884h6.45v-70.456h-6.59v58.838h-.35l-41.3-58.838h-6.6V489.1h6.6zM218.821 198.663a72.643 72.643 0 0 0-19.771-25.278 120.548 120.548 0 0 0-31.324-18.185q-18.442-7.536-41.542-14.635-19.993-5.757-33.323-11.086t-20.882-10.862q-7.56-5.539-10.663-11.974a32.622 32.622 0 0 1-3.11-14.412q0-15.518 12.218-27.051t39.765-11.53q23.1 0 40.432 7.317a97.639 97.639 0 0 1 31.989 22.394L215.489 50.1a163.061 163.061 0 0 0-45.319-31.041q-24.441-11.08-56.427-11.087a132.283 132.283 0 0 0-40.21 5.987 99.365 99.365 0 0 0-32.656 17.074 79.556 79.556 0 0 0-29.768 63.415q0 20.85 6 35.034A62.841 62.841 0 0 0 35.1 153.651q12 9.978 30.212 17.517a400.253 400.253 0 0 0 43.1 14.634q19.545 5.769 32.878 11.086a105.569 105.569 0 0 1 21.771 11.312q8.434 5.986 12 13.082a35.185 35.185 0 0 1 3.555 15.965q0 45.234-64.424 45.233a103.184 103.184 0 0 1-43.768-9.98 116.346 116.346 0 0 1-37.1-26.829L0 278.043a147.213 147.213 0 0 0 48.207 36.586q28.21 13.522 62.424 13.525 29.761 0 51.54-6.873 21.763-6.872 35.766-19.291a77.573 77.573 0 0 0 20.882-29.712 102.248 102.248 0 0 0 6.887-38.138q.002-20.84-6.885-35.477zm223.557-45.012q-6.9-23.72-19.147-38.8A75.11 75.11 0 0 0 394.5 92.674a88.05 88.05 0 0 0-35.177-7.1q-18.7 0-33.4 7.761a138.523 138.523 0 0 0-27.609 19.291l-.1-22.173H252.9V381.99l45.319-23.5v-56.94q9.8 10.644 25.4 18.626a72.347 72.347 0 0 0 33.427 7.982 88.725 88.725 0 0 0 34.982-7.095 80.193 80.193 0 0 0 29.407-21.73q12.7-14.634 20.278-36.586t7.574-52.107q-.009-33.263-6.909-56.989zm-52.192 113.97q-12.892 18.408-37.766 18.4a49.289 49.289 0 0 1-16.884-2.882 78.819 78.819 0 0 1-15.106-7.318 85.845 85.845 0 0 1-12.885-9.756 79.649 79.649 0 0 1-9.775-10.643V157.42a92.705 92.705 0 0 1 22.66-20.62 53.744 53.744 0 0 1 30.213-9.091q25.325 0 38.876 19.956t13.552 64.3q0 37.252-12.885 55.656zm262.447 55.655V163.629q0-39.465-24.215-58.759t-63.313-19.291q-24.888 0-43.986 5.322a143.993 143.993 0 0 0-35.989 15.522l17.773 34.59a116.7 116.7 0 0 1 28.213-11.087 137.3 137.3 0 0 1 32.656-3.548q21.327 0 32.656 10.2t11.33 29.269v17.295q-19.994-8.865-51.984-8.869a145.124 145.124 0 0 0-36.876 4.434 83.88 83.88 0 0 0-29.325 13.748 65.578 65.578 0 0 0-19.549 23.5q-7.113 14.2-7.109 33.7 0 21.286 7.331 36.364a70 70 0 0 0 18.883 24.391 73.944 73.944 0 0 0 25.992 13.525 101.936 101.936 0 0 0 28.658 4.213 80.319 80.319 0 0 0 35.544-7.982 104.457 104.457 0 0 0 28.435-19.956v23.06h44.875zM607.758 257.2q-8 11.09-22.881 20.4a61.941 61.941 0 0 1-33.545 9.313q-22.66 0-33.768-10.643t-11.107-27.94q0-15.965 12.885-25.277t35.1-9.313q18.66 0 31.323 2.661a85.284 85.284 0 0 1 21.993 7.539v33.26zM826.4 95.335a52.509 52.509 0 0 0-16.217-7.317q-9.111-2.432-23.326-2.439a63.538 63.538 0 0 0-31.323 7.761q-14 7.764-21.993 19.291V90.457h-46.213v232.819h46.208V190.237q0-29.706 12-44.791t33.764-15.077a74.251 74.251 0 0 1 19.549 2.217 77.957 77.957 0 0 1 15.551 6.209zm197.8 227.941L954 168.507l59.091-78.05h-51.983l-48.429 67.85q-5.779 8.43-13.33 19.734t-12.44 18.4V185.8q0-6.206.222-13.082t.222-13.748V-.01l-46.207 23.947v299.339h46.207v-68.737l35.547-47.007 51.539 115.744h49.761zm64.38 0V-.01l-46.21 23.947v299.339h46.21zm220.41-165.856a109.33 109.33 0 0 0-18.21-37.251 88.054 88.054 0 0 0-30.66-25.278q-18.435-9.312-43.32-9.313a105.576 105.576 0 0 0-41.54 7.982 87.079 87.079 0 0 0-32.21 23.282q-13.335 15.3-20.89 37.916t-7.55 52.329q0 28.833 8 51.442t21.77 38.138a90.98 90.98 0 0 0 32.21 23.5 96.82 96.82 0 0 0 38.88 7.982q26.655 0 45.76-7.982a115.051 115.051 0 0 0 34.66-22.617l-27.11-29.268a99.593 99.593 0 0 1-23.77 13.747 71.787 71.787 0 0 1-26.88 4.878 56.237 56.237 0 0 1-20.43-3.769 52.51 52.51 0 0 1-17.78-11.531 62.608 62.608 0 0 1-13.33-19.734q-5.325-11.973-7.1-28.825h154.17q.435-3.544.89-9.091.435-5.539.44-11.752a164.353 164.353 0 0 0-6-44.785zm-148.62 27.938q3.105-27.937 16.67-43.237 13.545-15.3 36.65-15.3 14.22 0 24.22 4.656a47.575 47.575 0 0 1 16.66 12.639 53.786 53.786 0 0 1 9.99 18.626 99.7 99.7 0 0 1 4.22 22.616h-108.41z"/></svg>